<svg id="Réteg_1" data-name="Réteg 1" xmlns="http://www.w3.org/2000/svg" viewBox="0 0 200 200"><defs><style>.cls-1{fill:#393938;}</style></defs><title>logo</title><polygon class="cls-1" points="114 155.91 114 155.91 120.33 140.34 120.33 140.34 114 155.91"/><path class="cls-1" d="M78.58,93.62c-.23.58-7.58,18.61-7.65,18.73a3,3,0,0,0,.18-.38Z"/><path class="cls-1" d="M111.54,16.49a3.28,3.28,0,0,0-1.19,6.45c.75.14,18.24,3.68,23.87,24.39a3.27,3.27,0,0,0,3.16,2.42,3,3,0,0,0,.86-.12,3.27,3.27,0,0,0,2.3-4C133.81,20.8,112.44,16.65,111.54,16.49Z"/><path class="cls-1" d="M156.06,62.3c.06-1,.08-2,.08-2.94,0-31.6-24.59-57.3-54.81-57.31S46.51,27.77,46.51,59.36c0,1,0,1.93.08,2.93a14.64,14.64,0,0,0-6.71,12.44A14.38,14.38,0,0,0,54,89.36h.52L98.29,197a3.28,3.28,0,0,0,6.07,0l43.8-107.66h.52a14.37,14.37,0,0,0,14.09-14.61A14.65,14.65,0,0,0,156.06,62.3ZM61.58,89.36H73.23L71.33,94l-2.53,6.23-1.39,3.42Zm9.36,23c.07-.12,7.41-18.15,7.65-18.73v0l7.82,19.24-7.64,18.79Zm31.79,71.28-1.39,3.44-7.65-18.79,7.54-18.52.11-.26v0l3.3,8.1L109,168.28ZM125.37,128l-1.49,3.67-.74-1.82q-3.45-8.48-6.91-17l7.83-19.24,3.27,8c2.06,5.06,4.35,10.66,4.39,10.73ZM116.8,94l-2.7,6.62c-.46,1.16-.94,2.31-1.41,3.47l-6-14.77h12C118.07,90.92,117.44,92.47,116.8,94Zm-7.65,18.8-6.3,15.48-1.52,3.76L93.5,112.84l7.83-19.24,3.27,8.08Q106.88,107.26,109.15,112.84ZM94.07,94q-1.34,3.28-2.68,6.57L90,104.13l-6-14.78H96C95.34,90.91,94.7,92.48,94.07,94Zm-11.75,46.3v0c0-.08.06-.15.09-.22L90,121.55v0l3.3,8.11,4.52,11.11-6.25,15.34-1.39,3.42v0Zm30.38-18.79,3.26,8c2.11,5.19,4.37,10.77,4.37,10.77h0L114,155.9l-1.49,3.67-7.64-18.79m24.55-51.43h11.66L139.17,94l-2.53,6.22-1.39,3.42h0Zm19.26-6.57H54a7.08,7.08,0,0,1-2.34-.4,5.34,5.34,0,0,1-.53-.21L50.79,82l-.28-.14-.31-.18-.25-.17a2.49,2.49,0,0,1-.29-.2c-.09-.07-.17-.14-.26-.21l-.26-.21c-.15-.14-.3-.28-.44-.44l-.19-.21a3.49,3.49,0,0,1-.26-.3,2.87,2.87,0,0,1-.19-.24c-.08-.11-.15-.22-.23-.32l-.16-.25-.21-.38-.12-.23c-.1-.2-.2-.41-.29-.63a1.14,1.14,0,0,0,0-.13c-.07-.18-.14-.36-.19-.55s0-.17-.07-.25-.08-.3-.11-.47,0-.17,0-.26-.05-.33-.08-.5a1.59,1.59,0,0,0,0-.24c0-.25,0-.5,0-.76a8,8,0,0,1,4.81-7.5,3.29,3.29,0,0,0,2-3.31c-.14-1.62-.21-3.11-.21-4.56,0-28,21.64-50.75,48.25-50.75l1.27,0,.41,0,.86,0,.5,0,.76.05.52,0,.73.07.53.07.72.09.53.08.71.11.53.09.7.13.52.11.7.15.5.12.71.17.49.12.71.2.48.14.72.22.46.14.74.24.41.14.77.28.38.14.8.31.33.13.86.36.26.11,1,.44.15.07a47.19,47.19,0,0,1,6.45,3.69l0,0,1,.67.09.07.9.67.11.09.86.67.13.11.83.67.13.12.8.69.13.12.79.72.12.12.78.75.11.11c.26.25.52.52.77.78l.09.09.78.82.07.08c.27.29.53.58.79.88l0,0a52,52,0,0,1,12.76,34.35c0,1.44-.06,2.94-.2,4.56a3.3,3.3,0,0,0,2,3.31,8,8,0,0,1,4.82,7.5A7.81,7.81,0,0,1,148.68,82.79Z"/></svg>